<?xml version="1.0" encoding="UTF-8" standalone="no"?>
<svg xmlns="http://www.w3.org/2000/svg" viewBox="0 0 800 200" width="800" height="200">
  <g fill="#000000" opacity="0.7">
    <!-- Main temple structure -->
    <path d="M400,10 L430,40 L430,120 L450,120 L450,150 L350,150 L350,120 L370,120 L370,40 L400,10 Z" />
    
    <!-- Left side temple -->
    <path d="M300,50 L320,70 L320,130 L330,130 L330,150 L270,150 L270,130 L280,130 L280,70 L300,50 Z" />
    
    <!-- Right side temple -->
    <path d="M500,50 L520,70 L520,130 L530,130 L530,150 L470,150 L470,130 L480,130 L480,70 L500,50 Z" />
    
    <!-- Small left structure -->
    <path d="M220,80 L235,95 L235,130 L240,130 L240,150 L200,150 L200,130 L205,130 L205,95 L220,80 Z" />
    
    <!-- Small right structure -->
    <path d="M580,80 L595,95 L595,130 L600,130 L600,150 L560,150 L560,130 L565,130 L565,95 L580,80 Z" />
    
    <!-- Base platform -->
    <rect x="150" y="150" width="500" height="20" />
    
    <!-- Steps -->
    <rect x="200" y="170" width="400" height="10" />
    <rect x="250" y="180" width="300" height="10" />
    <rect x="300" y="190" width="200" height="10" />
  </g>
</svg>